<?xml version="1.0" standalone="no"?>
<!DOCTYPE svg PUBLIC "-//W3C//DTD SVG 20010904//EN"
 "http://www.w3.org/TR/2001/REC-SVG-20010904/DTD/svg10.dtd">
<svg version="1.0" xmlns="http://www.w3.org/2000/svg"
 width="479.000000pt" height="479.000000pt" viewBox="0 0 479.000000 479.000000"
 preserveAspectRatio="xMidYMid meet">
<metadata>
Created by potrace 1.11, written by Peter Selinger 2001-2013
</metadata>
<g transform="translate(0.000000,479.000000) scale(0.100000,-0.100000)"
fill="#000000" stroke="none">
<path d="M2160 4779 c-391 -47 -683 -146 -1017 -345 -357 -211 -699 -586 -899
-984 -53 -107 -150 -367 -169 -456 -30 -142 -44 -218 -50 -264 -4 -30 -11 -82
-15 -115 -8 -61 -5 -443 3 -480 3 -11 8 -45 12 -75 4 -30 9 -64 11 -75 61
-329 176 -620 352 -890 203 -313 481 -580 796 -764 292 -171 597 -273 946
-316 98 -11 452 -13 525 -1 17 2 53 7 80 11 354 45 779 220 1080 444 375 279
669 669 824 1092 35 96 79 239 87 283 3 16 7 32 9 36 2 3 7 29 11 56 3 27 8
51 9 54 2 3 7 33 10 65 4 33 9 69 12 80 12 51 10 417 -3 525 -49 398 -172 732
-389 1060 -46 69 -91 134 -102 145 -10 11 -36 43 -57 70 -121 153 -383 379
-581 502 -265 164 -628 295 -910 328 -27 4 -61 9 -75 12 -42 8 -431 10 -500 2z"/>
</g>
</svg>
